<?xml version="1.0" standalone="no"?>
<!DOCTYPE svg PUBLIC "-//W3C//DTD SVG 20010904//EN"
 "http://www.w3.org/TR/2001/REC-SVG-20010904/DTD/svg10.dtd">
<svg version="1.0" xmlns="http://www.w3.org/2000/svg"
 width="500.000000pt" height="500.000000pt" viewBox="0 0 500.000000 500.000000"
 preserveAspectRatio="xMidYMid meet">
<metadata>
Created by potrace 1.15, written by Peter Selinger 2001-2017
</metadata>
<g transform="translate(0.000000,500.000000) scale(0.100000,-0.100000)"
fill="#000000" stroke="none">
<path d="M2365 4774 c-342 -34 -558 -91 -824 -220 -674 -325 -1138 -972 -1247
-1739 -23 -162 -23 -458 0 -620 109 -767 573 -1414 1247 -1739 314 -152 610
-220 954 -220 344 0 640 68 954 220 674 325 1138 972 1247 1739 23 162 23 458
0 620 -109 767 -573 1414 -1247 1739 -217 105 -426 169 -653 201 -108 15 -359
26 -431 19z m-27 -196 c53 -25 109 -89 123 -142 8 -29 9 -71 2 -141 -5 -55 -8
-176 -7 -270 1 -93 5 -422 8 -730 5 -584 12 -765 27 -765 5 0 9 65 9 145 l0
145 137 0 c113 0 140 3 155 17 10 9 18 19 18 22 0 3 -63 5 -140 3 -100 -3
-145 0 -156 8 -12 10 -14 64 -14 321 l0 309 168 0 167 0 85 -85 c47 -47 93
-85 102 -85 10 0 18 2 18 4 0 2 -43 46 -96 97 l-95 94 -172 5 -172 5 -3 255
-2 254 94 96 c65 65 96 105 101 126 12 59 75 49 75 -11 0 -26 -4 -35 -17 -36
-10 -1 -24 -2 -31 -3 -7 0 -53 -44 -102 -96 l-90 -95 2 -230 3 -230 165 -3
166 -2 154 -155 c85 -85 148 -155 139 -155 -8 0 -34 -20 -57 -43 -39 -40 -41
-45 -26 -57 14 -13 22 -8 61 34 33 34 49 44 56 37 8 -8 -4 -25 -43 -61 -30
-27 -57 -50 -60 -50 -3 0 -70 65 -150 145 l-145 145 -98 0 -97 0 2 -212 3
-213 155 -3 155 -3 78 -77 c42 -42 77 -80 77 -85 0 -4 -31 -39 -69 -77 l-69
-70 -135 0 -134 0 -7 -61 c-5 -42 -3 -65 5 -75 18 -22 29 0 29 57 0 46 1 46
38 53 20 3 84 6 142 6 l105 0 85 85 84 85 -89 92 c-50 51 -94 96 -100 100 -5
4 -76 8 -156 8 -112 0 -149 3 -158 14 -8 9 -11 65 -9 177 l3 164 59 3 59 3
167 -170 167 -170 92 91 92 91 -45 46 c-25 25 -105 109 -179 185 -107 111
-139 139 -163 141 -16 1 -93 3 -171 3 l-143 2 0 208 0 207 135 135 135 135
-44 43 -43 44 -115 -118 c-70 -72 -119 -114 -126 -110 -8 5 -12 49 -12 134 l0
127 88 88 87 87 100 0 100 0 177 -177 177 -177 40 32 c22 18 46 32 53 32 18 0
38 -20 38 -39 0 -16 -78 -101 -93 -101 -5 0 -99 90 -210 200 l-202 200 -81 0
-82 0 -81 -80 -81 -80 0 -90 c0 -50 3 -90 8 -90 4 0 52 45 107 100 55 55 104
100 110 100 13 0 125 -112 125 -125 0 -6 -63 -73 -140 -150 -130 -130 -140
-142 -140 -177 0 -41 5 -45 35 -25 21 14 236 17 266 3 18 -8 21 -85 4 -99 -6
-6 -5 -10 4 -14 11 -5 11 -7 0 -15 -11 -8 -11 -11 -1 -15 9 -4 10 -8 2 -18 -8
-10 -8 -15 1 -20 8 -6 7 -10 -2 -17 -11 -7 -11 -11 -1 -15 18 -7 15 -41 -5
-51 -10 -5 -33 -8 -50 -7 -19 2 -33 -2 -33 -9 0 -7 -3 -8 -8 -1 -4 6 -25 11
-47 11 -22 0 -43 -5 -47 -11 -5 -6 -8 -6 -8 2 0 7 -11 11 -29 8 -20 -2 -35 3
-47 16 -12 13 -13 19 -4 19 8 0 9 4 4 13 -8 11 -10 32 -4 47 6 17 5 52 -2 56
-5 3 -4 12 3 20 9 11 9 14 -1 14 -9 0 -9 4 -2 13 11 13 -9 52 -21 40 -10 -9
-8 -261 1 -267 5 -3 76 -6 160 -7 l151 -2 196 -197 c107 -109 195 -202 195
-207 0 -4 -50 -58 -110 -118 l-110 -110 -116 115 c-64 63 -143 143 -177 178
-33 34 -64 59 -69 54 -5 -5 -7 -71 -6 -148 l3 -139 118 -1 119 -1 115 -115
116 -116 -100 -101 -100 -102 -131 -3 c-73 -2 -135 -6 -138 -9 -9 -9 7 -147
17 -147 5 0 9 26 9 59 l0 58 46 7 c26 3 87 6 137 6 l90 0 108 110 c60 61 109
115 109 122 0 6 -28 40 -61 75 l-62 64 49 51 c27 28 86 89 131 134 l83 84
-216 219 -215 219 -4 138 -5 138 -80 81 c-44 44 -80 87 -80 95 0 8 39 54 86
101 l87 87 -73 71 c-66 66 -75 71 -114 71 -57 0 -110 -35 -114 -75 -6 -48 -52
-63 -73 -24 -16 30 3 69 34 69 13 0 36 13 52 30 26 27 34 30 95 30 l65 0 84
-84 c46 -46 82 -89 80 -95 -2 -6 -42 -49 -88 -96 l-84 -85 69 -72 c38 -40 75
-77 82 -81 9 -6 12 -47 12 -146 l0 -139 116 -118 c64 -66 164 -168 222 -227
l106 -108 -70 -72 c-38 -40 -96 -100 -129 -135 l-59 -62 62 -63 c34 -34 62
-67 62 -72 0 -5 -57 -67 -127 -137 l-128 -128 -100 -1 c-55 -1 -113 -4 -128
-8 -24 -5 -26 -8 -15 -23 11 -14 29 -15 138 -11 l125 6 105 101 c57 55 127
123 154 149 l50 48 -67 67 c-37 37 -67 71 -67 76 0 5 76 87 170 183 l170 174
-82 84 c-45 47 -88 85 -95 85 -15 0 -53 35 -53 49 0 5 8 19 18 31 16 19 22 21
40 11 14 -8 22 -21 22 -39 0 -20 22 -49 97 -124 l98 -98 -173 -173 c-94 -95
-172 -177 -172 -182 0 -5 30 -40 68 -78 l67 -68 -176 -174 -176 -174 -74 -3
-74 -3 0 -30 c0 -29 2 -30 55 -36 30 -3 65 -2 78 3 21 7 413 398 421 420 2 6
-27 41 -65 79 l-68 69 174 175 c96 97 176 179 178 183 1 4 -72 81 -163 172
l-165 164 -45 -44 c-25 -24 -45 -47 -45 -50 0 -3 54 -60 120 -126 67 -65 123
-130 127 -143 6 -25 -9 -41 -41 -41 -16 0 -16 2 5 18 14 12 20 25 16 35 -9 24
-44 21 -52 -3 -6 -18 -20 -8 -113 82 -59 56 -116 113 -126 126 l-19 24 86 86
87 87 190 -195 190 -195 -175 -175 c-96 -96 -175 -180 -175 -185 0 -6 27 -37
60 -70 33 -33 60 -66 60 -73 0 -8 -101 -115 -225 -238 l-225 -224 -70 0 c-40
0 -70 -4 -70 -10 0 -5 8 -10 19 -10 10 0 45 -3 78 -6 l60 -7 253 252 253 251
-68 71 -68 70 179 180 179 179 -223 222 -222 223 -101 -102 -102 -102 -63 56
-64 57 0 135 0 136 -77 77 -77 77 60 63 c32 35 70 72 83 82 l23 19 284 -284
c156 -156 288 -285 294 -287 6 -2 10 14 10 40 0 42 -3 46 -140 183 -77 77
-140 146 -140 152 0 7 32 45 70 84 39 40 70 75 70 79 0 4 -38 44 -85 88 -82
80 -85 82 -133 82 -33 0 -54 -5 -62 -15 -30 -36 -78 1 -66 48 7 31 45 37 66
12 8 -10 31 -15 69 -15 l56 0 124 -124 124 -124 -47 -55 c-26 -30 -61 -65 -78
-77 l-30 -22 166 -167 166 -166 0 -82 c0 -49 -4 -85 -11 -89 -7 -4 -153 136
-358 340 -190 190 -350 346 -354 346 -4 0 -33 -24 -64 -54 l-57 -54 72 -73 72
-72 0 -87 0 -86 68 -67 68 -67 74 75 c41 41 79 75 85 75 12 0 478 -464 484
-481 2 -6 -74 -89 -170 -185 -163 -163 -172 -174 -157 -191 9 -10 37 -40 62
-68 25 -27 46 -53 46 -57 0 -4 -117 -123 -261 -265 l-260 -258 -52 -5 c-69 -7
-62 -24 10 -28 l58 -3 235 236 235 235 100 0 101 0 39 40 c21 22 44 55 49 72
9 28 16 33 41 33 25 0 30 -4 33 -28 4 -32 -13 -57 -37 -57 -9 0 -37 -20 -61
-45 l-44 -45 -105 0 -104 0 -234 -232 -233 -233 -65 -5 c-90 -7 -83 -25 10
-25 l74 0 224 223 223 222 119 0 120 0 102 102 103 103 -52 52 -51 52 -95 -90
c-53 -49 -99 -89 -104 -89 -11 0 -168 163 -168 175 0 13 306 315 320 315 6 0
10 -34 10 -86 l0 -86 -47 -55 c-27 -31 -52 -70 -58 -87 -8 -26 -15 -31 -40
-31 -27 0 -30 3 -33 38 -3 35 -1 38 28 43 46 10 70 47 70 108 l0 51 -97 -98
-98 -97 66 -66 67 -67 84 82 c47 44 89 81 94 81 5 0 42 -33 81 -72 l72 -73
-112 -118 -112 -117 -56 0 c-31 0 -91 -3 -134 -7 l-78 -6 -220 -216 -219 -216
-81 -5 c-52 -3 -82 -9 -85 -17 -3 -10 19 -13 85 -13 l89 0 90 84 89 84 93 -91
c93 -93 108 -121 77 -147 -19 -16 -27 -10 -120 87 -39 40 -75 73 -80 73 -5 0
-36 -26 -67 -57 l-59 -58 -96 -5 c-64 -3 -98 -9 -101 -17 -3 -10 21 -13 99
-13 l103 0 48 47 48 47 88 -87 c48 -48 91 -87 95 -87 3 0 36 30 72 67 l65 68
-107 107 -107 108 99 102 c55 57 105 106 110 110 6 4 73 8 150 8 l140 0 72 72
c40 40 73 80 73 89 0 34 12 49 41 49 23 0 30 -6 35 -27 8 -31 -6 -57 -33 -61
-11 -2 -55 -39 -98 -82 l-80 -80 -146 0 -147 0 -87 -91 -87 -92 108 -108 109
-109 -85 -85 c-46 -47 -89 -85 -95 -85 -5 0 -49 39 -97 87 l-88 87 -42 -41
-43 -42 -104 -3 c-73 -2 -106 -7 -109 -15 -3 -10 24 -13 111 -13 110 0 117 1
147 27 l32 26 94 -94 94 -94 127 128 128 127 -109 109 c-60 60 -107 113 -105
117 2 5 31 34 64 65 l60 56 123 -4 c116 -5 125 -4 143 16 24 25 33 26 53 5 21
-20 20 -58 0 -75 -14 -11 -21 -10 -46 4 -21 12 -53 17 -112 17 l-82 0 -64 -65
-65 -65 109 -109 109 -109 -146 -146 c-81 -80 -150 -146 -154 -146 -4 0 -58
50 -118 110 -110 110 -111 111 -130 90 -16 -18 -30 -20 -137 -20 -98 0 -118
-3 -118 -15 0 -13 21 -15 133 -15 l132 0 149 -149 149 -150 -70 -78 c-39 -43
-80 -87 -92 -97 l-22 -20 47 -47 c26 -26 52 -45 59 -43 16 7 45 -23 45 -45 0
-10 -9 -26 -19 -35 -25 -22 -61 -6 -61 27 0 14 -21 43 -55 77 -30 30 -55 59
-55 64 0 6 42 52 92 103 l93 93 -135 135 -135 135 -117 0 c-64 0 -123 -3 -132
-6 -41 -16 -7 -24 97 -24 l112 0 119 -119 c65 -65 117 -123 115 -129 -4 -10
-51 -63 -142 -159 l-40 -41 103 -106 103 -106 96 0 96 0 -107 108 c-59 59
-111 110 -114 115 -4 4 37 52 91 107 l98 101 -49 50 -49 49 178 178 c97 97
177 182 177 187 0 22 -59 65 -90 65 -38 0 -86 24 -100 49 -5 11 -10 36 -10 56
0 47 13 71 50 90 80 41 169 -6 170 -90 0 -32 7 -47 39 -80 l39 -40 -159 -165
-159 -165 0 -100 0 -100 -90 -90 c-49 -49 -90 -94 -90 -100 0 -5 52 -62 115
-125 63 -63 114 -119 112 -125 -2 -6 -53 -11 -123 -13 l-119 -2 -124 124 -124
125 91 99 c51 55 92 103 92 107 0 4 -46 54 -102 111 l-103 104 -101 0 c-81 0
-103 -3 -108 -15 -4 -13 8 -15 82 -15 l87 0 88 -88 c48 -48 87 -92 87 -97 0
-6 -58 -69 -130 -140 -83 -83 -130 -137 -130 -150 0 -45 -51 -61 -71 -24 -15
29 3 69 32 69 14 0 62 41 140 121 66 66 119 124 119 128 0 3 -33 39 -73 79
l-73 73 -79 -3 c-52 -2 -80 -7 -83 -15 -3 -10 15 -13 65 -13 l69 0 57 -58 57
-57 -150 -150 c-83 -82 -150 -155 -150 -161 0 -14 78 -84 94 -84 7 0 40 31 75
70 34 39 68 70 74 70 7 0 68 -56 137 -125 l125 -125 166 0 c164 0 166 0 189
25 l24 26 -129 129 -129 130 44 46 c25 25 57 59 73 74 26 27 27 33 27 132 l0
103 150 150 150 150 0 215 0 216 55 54 55 54 0 -419 0 -420 -160 -160 c-88
-88 -160 -165 -160 -171 0 -5 13 -23 30 -39 24 -23 32 -26 45 -15 8 7 15 23
15 36 0 31 42 53 65 34 22 -18 19 -67 -5 -80 -11 -6 -24 -9 -29 -6 -4 3 -25
-13 -46 -34 -22 -22 -47 -40 -56 -40 -9 0 -38 23 -64 51 -46 50 -47 51 -28 71
10 12 96 100 190 197 l173 176 0 278 c0 152 -4 277 -8 277 -26 0 -32 -30 -32
-150 l0 -126 -130 -135 -129 -134 -1 -105 0 -105 -87 -87 -87 -87 70 -73 c125
-129 174 -183 174 -190 0 -4 -14 -23 -31 -43 l-31 -35 -187 0 -186 0 -115 115
c-63 63 -119 115 -125 115 -6 0 -40 -29 -75 -65 -35 -36 -71 -65 -80 -65 -17
0 -130 109 -130 125 0 6 65 75 145 155 80 80 145 149 145 154 0 6 -17 27 -37
48 -33 34 -42 38 -89 38 -34 0 -56 -5 -64 -15 -11 -13 -6 -15 39 -15 42 0 57
-5 76 -25 14 -13 25 -28 25 -32 0 -5 -65 -73 -145 -153 -80 -80 -145 -150
-145 -156 0 -6 42 -50 93 -97 l94 -86 64 65 c35 35 68 64 74 64 6 0 62 -51
124 -114 l114 -114 113 -4 c92 -2 117 -6 131 -21 14 -13 15 -21 7 -35 -9 -14
-29 -18 -114 -20 l-103 -3 -135 136 c-74 74 -138 135 -141 135 -3 0 -36 -30
-73 -67 l-68 -68 -110 110 c-61 60 -110 116 -110 125 0 8 40 55 90 105 86 86
88 90 59 89 -21 -1 -42 -13 -72 -42 -54 -53 -67 -53 -67 -1 0 28 -4 39 -12 37
-10 -4 -14 -57 -16 -211 -1 -114 1 -207 6 -207 16 0 32 25 32 51 0 33 22 53
49 44 44 -14 37 -82 -9 -91 -16 -4 -41 -19 -56 -35 -53 -55 -54 -51 -54 206 0
202 -2 235 -15 235 -13 0 -15 -34 -15 -248 l0 -249 25 -23 26 -24 77 77 c43
42 82 77 87 77 13 0 285 -272 285 -285 0 -5 -27 -37 -60 -70 l-61 -61 25 -24
25 -23 78 76 78 76 -117 118 c-65 65 -118 123 -118 128 0 17 59 83 79 90 14 4
51 -26 151 -125 105 -104 138 -130 160 -130 15 0 33 7 40 15 25 30 70 11 70
-30 0 -41 -45 -60 -70 -30 -7 8 -29 15 -49 15 -32 0 -46 10 -123 87 l-87 87
-26 -24 c-14 -13 -25 -28 -25 -34 0 -6 34 -43 75 -81 41 -39 75 -77 75 -86 0
-13 -93 -108 -224 -228 l-26 -25 -29 28 c-15 15 -34 38 -41 52 -13 24 -10 28
73 112 l87 87 -123 123 -122 122 -75 -75 c-41 -41 -82 -75 -91 -75 -9 0 -30
16 -45 36 l-29 36 -5 254 c-7 349 -24 343 -28 -11 l-2 -269 57 -58 c32 -32 62
-58 68 -58 5 0 41 32 80 70 38 39 72 70 76 70 3 0 39 -36 79 -81 l73 -81 -104
-104 -104 -104 65 -65 64 -65 58 0 58 0 85 81 c55 53 85 89 87 106 4 34 32 52
56 37 35 -22 22 -84 -17 -84 -9 0 -54 -38 -101 -85 l-85 -85 -80 0 -80 0 -72
72 c-40 40 -73 79 -73 88 0 8 45 60 100 115 l100 101 -55 54 -55 54 -73 -72
c-40 -40 -77 -72 -83 -72 -6 0 -46 36 -89 80 l-78 80 6 255 c4 140 4 276 0
303 l-7 47 -7 -40 c-5 -22 -8 -171 -8 -330 l-1 -290 94 -94 95 -94 43 38 c65
59 66 60 70 85 4 31 32 48 56 34 35 -22 22 -84 -17 -84 -9 0 -46 -27 -81 -59
-49 -44 -69 -57 -81 -50 -9 4 -60 55 -113 112 l-96 104 -2 302 c-2 190 -7 302
-13 304 -6 1 -11 -116 -13 -333 l-2 -335 172 -172 c95 -95 180 -173 189 -173
40 0 52 -71 17 -94 -21 -13 -58 17 -58 48 0 13 -63 84 -180 201 l-180 181 0
342 c0 221 -4 342 -10 342 -6 0 -10 -43 -10 -107 -1 -65 -6 -123 -14 -146 -11
-29 -11 -48 -4 -75 11 -38 8 -98 -12 -282 l-12 -105 -74 -77 c-53 -56 -86
-102 -118 -167 -49 -97 -76 -123 -149 -143 -42 -11 -60 -9 -194 22 -82 18
-164 41 -183 51 -20 9 -69 51 -110 93 -41 42 -80 76 -87 76 -17 0 -28 49 -16
69 6 9 23 16 39 16 27 0 29 -3 32 -42 3 -44 37 -88 115 -147 78 -59 338 -114
419 -87 46 15 68 40 123 141 28 51 72 111 110 150 l63 65 12 115 c7 63 14 138
17 166 6 63 -17 118 -58 140 -24 12 -52 13 -172 5 -213 -14 -335 7 -427 74
-48 36 -84 79 -100 121 -9 23 -15 26 -40 21 -52 -11 -98 -35 -114 -59 -9 -15
-18 -53 -20 -94 -8 -148 -75 -195 -208 -144 -37 14 -55 16 -64 9 -18 -15 -52
-2 -59 22 -17 54 35 89 69 46 68 -82 179 -89 211 -12 8 19 15 53 15 75 0 58
19 125 42 150 14 15 18 28 13 50 -8 36 -53 76 -69 60 -16 -16 -54 -12 -65 8
-15 27 -2 61 25 68 18 5 34 -5 78 -49 30 -30 58 -66 62 -81 6 -26 8 -27 53
-20 25 4 52 11 59 16 16 14 15 35 -2 45 -8 4 -50 39 -94 76 -80 69 -122 133
-122 186 0 17 -6 21 -30 21 -33 0 -40 -19 -15 -40 23 -19 19 -67 -6 -80 -16
-9 -25 -8 -40 6 -23 21 -24 42 -4 71 21 30 11 50 -53 110 l-56 52 -37 -20
c-41 -20 -246 -224 -267 -266 -8 -15 -11 -38 -8 -58 11 -57 70 -95 182 -119
94 -19 166 -49 174 -72 12 -31 -6 -64 -34 -64 -29 0 -50 31 -41 60 5 15 -1 21
-32 29 -80 21 -136 31 -141 26 -11 -11 -3 -110 11 -150 8 -23 33 -71 55 -107
23 -37 52 -89 66 -115 37 -74 107 -132 246 -204 112 -58 136 -75 236 -171 111
-108 160 -139 237 -153 29 -6 42 -3 57 10 35 32 81 -6 65 -54 -9 -28 -42 -36
-64 -17 -10 9 -44 23 -77 32 -92 23 -132 49 -224 143 -84 85 -173 148 -338
239 -83 46 -118 81 -181 185 -95 158 -122 222 -128 306 -5 71 -8 78 -40 104
-66 56 -81 128 -40 184 34 46 205 223 251 259 l40 31 -32 41 c-91 114 -97 258
-17 411 13 25 14 36 5 47 -17 20 -4 61 22 70 16 5 27 1 39 -15 18 -22 16 -44
-7 -71 -7 -8 -28 -47 -46 -85 -29 -61 -33 -80 -33 -150 0 -106 23 -149 145
-271 l95 -94 65 0 c77 0 129 21 189 75 40 36 52 67 31 80 -17 11 -11 64 8 74
40 21 81 -39 49 -71 -22 -22 -29 -65 -12 -72 9 -3 42 -47 74 -97 70 -107 91
-126 121 -107 15 10 25 10 38 2 35 -22 22 -84 -17 -84 -24 0 -135 110 -166
166 -30 52 -64 94 -76 94 -4 0 -31 -16 -60 -35 -29 -19 -75 -42 -101 -51 -55
-18 -61 -38 -29 -91 25 -41 116 -130 169 -167 l41 -28 34 21 c18 11 42 29 52
41 38 42 90 5 66 -47 -11 -23 -16 -25 -52 -19 -35 6 -44 3 -70 -23 -47 -48
-35 -107 36 -169 88 -78 164 -95 414 -92 102 1 200 1 216 -1 l30 -4 3 120 3
120 -186 -1 -185 -2 0 34 c0 19 -4 34 -10 34 -5 0 -10 16 -10 35 0 32 -2 35
-30 35 l-30 0 0 325 0 325 33 2 32 1 -32 4 c-27 4 -33 9 -33 29 0 21 5 24 35
24 33 0 35 2 35 35 0 34 1 35 40 35 38 0 40 2 40 30 0 34 -12 32 193 33 l107
0 0 149 0 149 -177 -7 c-134 -5 -182 -10 -195 -21 -36 -31 -81 13 -58 57 12
23 55 27 67 6 7 -12 38 -13 186 -9 l177 6 -2 316 -3 316 -140 0 c-130 0 -143
-2 -183 -24 -23 -14 -51 -40 -62 -58 -19 -33 -35 -40 -56 -25 -38 26 -13 97
30 86 15 -3 35 3 59 19 52 35 150 51 264 43 l95 -7 -6 143 c-10 258 -22 413
-33 434 -16 27 -97 102 -127 116 -20 9 -29 7 -51 -10 -35 -28 -65 -15 -65 27
0 44 24 58 63 39 18 -9 42 -19 54 -23 13 -3 48 -27 78 -52 31 -25 58 -43 60
-41 2 2 7 64 10 138 l7 135 -31 48 c-43 66 -109 97 -209 97 -62 0 -80 -4 -125
-30 -29 -16 -95 -41 -147 -54 -130 -34 -140 -38 -238 -105 -48 -32 -109 -70
-137 -84 -66 -33 -135 -94 -135 -118 0 -50 -43 -77 -69 -45 -19 22 -10 70 14
75 11 2 40 21 65 43 25 22 67 51 95 65 27 14 96 57 153 94 79 52 125 75 191
95 47 14 109 34 136 46 134 56 147 59 225 52 42 -3 94 -15 118 -26z m-90 -70
c23 -23 13 -62 -29 -111 -32 -37 -67 -61 -148 -101 -58 -30 -114 -62 -123 -73
-40 -44 -63 -154 -39 -192 7 -11 14 -10 37 6 44 31 99 52 172 64 37 5 77 15
88 21 51 24 89 -21 54 -64 l-19 -23 -44 24 c-53 29 -92 25 -175 -15 -63 -31
-92 -71 -92 -130 0 -28 -10 -57 -36 -100 -51 -85 -76 -135 -70 -142 3 -3 29 2
57 11 36 12 87 17 166 17 l115 0 35 35 c33 33 34 36 28 89 -6 49 -5 55 15 66
18 9 25 8 41 -6 24 -22 24 -35 -2 -87 -60 -118 -103 -144 -212 -126 -63 10
-80 10 -132 -5 -83 -25 -130 -51 -188 -104 -96 -90 -121 -196 -71 -302 46 -99
74 -173 74 -197 0 -29 -25 -80 -42 -85 -19 -7 -1 -37 28 -48 26 -10 75 -2 136
22 15 5 53 41 84 79 52 64 55 71 41 87 -8 9 -22 33 -30 53 -8 20 -27 45 -42
57 -28 22 -85 30 -85 12 0 -14 -37 -31 -54 -24 -22 8 -30 47 -16 73 12 24 37
27 59 7 9 -8 40 -19 69 -25 48 -10 57 -9 81 8 14 10 50 27 80 36 l53 18 65
-27 c59 -24 67 -25 83 -11 31 28 70 12 70 -30 0 -39 -42 -59 -67 -34 -19 19
-115 48 -160 49 -59 0 -113 -27 -113 -57 0 -26 33 -98 50 -108 21 -13 8 -35
-61 -109 -58 -62 -81 -79 -130 -97 -32 -12 -63 -27 -69 -34 -5 -6 -15 -59 -20
-116 -10 -95 -13 -106 -38 -124 -15 -11 -41 -35 -58 -53 -37 -39 -70 -37 -80
5 -9 35 28 68 58 52 21 -11 38 -3 70 36 14 16 18 40 18 122 l0 101 -37 30
c-69 53 -103 66 -178 67 -68 0 -74 -2 -146 -49 -42 -27 -80 -59 -85 -70 -18
-41 -74 -27 -74 19 0 32 23 48 60 40 29 -6 30 -6 30 33 0 51 -24 108 -53 126
-76 48 -273 1 -313 -76 -8 -15 -23 -87 -33 -160 -11 -73 -31 -173 -45 -222
-41 -141 -33 -203 34 -259 36 -31 100 -51 114 -37 15 15 52 12 66 -5 15 -19 5
-64 -17 -72 -8 -3 -23 -1 -32 6 -28 20 -95 51 -113 51 -9 0 -27 -17 -40 -37
-22 -36 -23 -46 -21 -193 3 -178 9 -210 46 -228 51 -25 42 -96 -11 -90 -22 2
-27 9 -30 33 -1 17 -9 66 -18 111 -22 108 -16 343 9 391 17 31 17 32 -16 84
-27 45 -32 61 -31 113 0 37 10 93 26 141 14 44 33 137 42 207 8 70 23 144 32
165 9 21 18 58 19 83 3 77 15 109 66 176 33 44 49 75 49 94 0 17 25 77 56 136
46 88 60 126 80 225 13 66 31 136 39 157 10 22 70 91 155 175 77 76 144 147
150 157 6 12 21 20 35 20 32 0 48 -30 35 -66 -9 -24 -14 -26 -45 -21 -31 5
-38 1 -67 -32 -18 -21 -60 -62 -94 -90 -104 -88 -148 -169 -178 -326 -11 -54
-31 -111 -64 -175 -106 -207 -66 -197 90 23 33 47 68 80 122 116 42 29 82 62
90 74 17 27 28 124 15 132 -5 4 -9 19 -9 35 0 40 34 59 61 34 23 -20 24 -42 5
-70 -8 -11 -19 -47 -25 -79 -14 -77 -31 -99 -120 -159 -57 -38 -84 -66 -124
-125 -29 -42 -95 -121 -148 -176 -110 -115 -126 -139 -135 -194 -8 -50 -6 -50
95 -15 82 28 151 30 206 3 34 -16 75 -82 75 -121 0 -29 15 -45 25 -28 10 16
76 47 117 54 35 6 63 2 157 -26 41 -12 44 -12 63 12 26 32 18 91 -28 185 -79
166 -67 247 57 380 56 59 61 68 55 98 -3 19 -25 64 -47 102 -23 37 -55 98 -71
134 -42 94 -42 94 -71 111 -23 13 -28 13 -45 -3 -33 -30 -72 -15 -72 28 0 39
45 60 68 32 6 -7 23 -14 38 -15 39 -3 71 -37 95 -101 22 -60 119 -231 131
-231 11 0 47 55 74 115 21 46 25 65 19 101 -7 47 -17 61 -75 97 -19 13 -57 52
-84 87 -27 36 -57 66 -67 68 -53 9 -44 96 8 90 23 -2 29 -9 34 -38 3 -19 13
-50 23 -68 19 -37 98 -122 112 -122 6 0 15 26 22 58 14 67 56 123 130 174 54
37 62 45 62 74 0 17 -5 20 -28 16 -49 -7 -72 55 -29 82 25 16 48 -2 77 -62 14
-28 31 -51 38 -51 7 -1 29 14 48 32 33 30 35 35 23 54 -27 43 24 96 59 61z
m810 -380 c7 -7 12 -21 12 -32 0 -31 89 -116 121 -116 15 0 41 -12 58 -26 27
-22 31 -32 31 -72 -1 -50 -10 -68 -50 -95 -95 -66 -206 73 -128 160 15 16 17
25 9 41 -12 22 -56 54 -86 62 -20 6 -32 47 -21 76 7 17 38 18 54 2z m-1471
-560 c15 -34 -1 -68 -31 -68 -14 0 -28 5 -31 10 -11 18 -45 11 -71 -15 -22
-23 -25 -32 -21 -73 5 -45 36 -173 57 -236 7 -23 6 -35 -5 -53 -19 -28 -36
-29 -61 -2 -18 20 -18 22 -1 51 25 43 21 101 -10 165 -32 64 -46 73 -74 47
-33 -30 -39 -49 -27 -82 15 -38 -3 -64 -41 -60 -54 6 -30 89 49 165 19 19 55
54 80 78 25 24 62 51 82 59 20 9 39 20 43 26 12 19 51 11 62 -12z m1274 -380
c27 -33 24 -73 -7 -97 -15 -12 -35 -21 -46 -21 -25 0 -68 44 -68 70 0 29 44
70 75 70 16 0 35 -10 46 -22z m-1804 -244 c3 -8 0 -27 -7 -44 -16 -39 -5 -81
33 -124 l32 -36 45 16 c33 12 68 15 135 12 l90 -5 28 44 c15 24 27 57 27 72 0
55 63 67 76 15 5 -20 -3 -34 -44 -78 -28 -30 -53 -64 -56 -77 -21 -90 -26
-119 -26 -161 0 -83 55 -199 111 -232 17 -10 50 -16 86 -16 69 0 149 -25 240
-75 54 -30 66 -33 83 -23 39 24 79 -32 50 -68 -18 -21 -38 -17 -74 13 -43 36
-145 83 -181 83 -44 0 -99 -42 -125 -95 -17 -36 -19 -49 -10 -60 16 -19 9 -55
-12 -69 -43 -27 -78 45 -39 81 10 10 23 32 27 48 12 51 33 84 64 100 47 24 38
38 -20 30 -99 -14 -154 27 -196 145 -21 58 -28 97 -30 175 -3 99 -3 100 -31
112 -35 15 -106 16 -154 3 -52 -15 -111 -72 -167 -165 -49 -80 -71 -97 -97
-75 -35 29 -6 87 37 77 20 -5 30 6 75 74 l51 80 -34 56 c-19 31 -34 64 -34 73
0 9 -7 25 -15 36 -20 26 -19 71 2 83 20 11 51 -2 60 -25z m829 -179 c9 -13 26
-27 37 -31 40 -12 85 -53 97 -89 6 -19 14 -35 17 -35 3 0 16 9 30 20 29 23
113 50 154 50 15 0 29 7 33 15 7 19 40 19 55 1 7 -8 11 -27 9 -43 -2 -21 -9
-29 -27 -31 -13 -2 -28 1 -34 7 -30 30 -131 -2 -195 -63 -38 -35 -86 -121 -76
-137 8 -14 -23 -59 -41 -59 -8 0 -22 11 -31 25 -15 23 -15 27 0 50 9 14 20 25
25 25 13 0 51 95 51 127 0 57 -65 110 -120 98 -24 -5 -32 -2 -45 19 -16 24
-16 28 -1 51 21 32 41 32 62 0z m2122 -835 c52 -46 51 -47 -42 -140 l-66 -65
-46 47 -47 46 73 76 c40 42 76 76 79 76 3 -1 25 -18 49 -40z m-2061 -380 c14
-11 31 -20 38 -20 6 0 40 -25 75 -55 99 -86 171 -97 235 -35 36 35 62 32 71
-6 12 -46 -21 -78 -56 -56 -10 6 -22 7 -31 1 -23 -15 -118 -10 -152 7 -18 9
-51 34 -73 54 -23 21 -55 45 -72 54 -26 14 -31 14 -42 1 -15 -18 -42 -19 -58
-3 -13 13 -16 60 -5 71 12 13 45 7 70 -13z m-278 -232 c5 -13 6 -28 4 -35 -7
-18 104 -140 154 -169 41 -25 46 -25 162 -18 82 5 124 11 132 20 14 17 41 18
57 2 18 -18 14 -53 -8 -73 -20 -18 -21 -18 -51 4 -30 22 -37 23 -144 16 -103
-6 -116 -5 -155 15 -26 13 -51 19 -65 16 -34 -9 -80 -51 -95 -87 -11 -26 -11
-35 3 -59 19 -32 14 -56 -15 -71 -39 -21 -69 32 -45 78 9 16 21 42 27 60 7 18
34 53 61 78 27 25 49 49 49 53 0 15 -96 102 -112 102 -26 0 -43 42 -29 69 16
29 59 28 70 -1z m225 -344 c9 -8 16 -22 16 -29 0 -18 59 -29 108 -22 86 13
158 32 165 44 10 16 49 17 65 1 7 -7 12 -21 12 -33 0 -41 -45 -60 -70 -30 -25
30 -111 9 -165 -41 -30 -27 -36 -39 -33 -66 2 -25 10 -36 31 -46 25 -12 31
-12 46 2 34 31 76 10 69 -35 -5 -36 -31 -46 -70 -27 -18 9 -47 22 -65 28 -17
7 -34 18 -37 26 -6 17 -168 13 -174 -5 -7 -21 -52 -12 -63 13 -24 51 28 87 66
46 13 -14 31 -20 63 -20 41 0 49 4 88 47 24 25 41 50 38 54 -9 15 -76 28 -107
22 -30 -6 -57 14 -57 43 0 17 28 44 45 44 7 0 21 -7 29 -16z"/>
<path d="M2540 3180 l0 -280 168 0 168 0 48 -49 c53 -54 53 -68 0 -110 -24
-19 -40 -21 -175 -21 l-149 0 0 -100 c0 -60 4 -100 10 -100 6 0 10 35 10 84 0
62 4 85 14 89 7 3 74 3 147 1 l134 -5 58 59 59 59 -66 67 -66 66 -165 0 -165
0 2 248 3 247 111 3 111 3 89 -85 c49 -47 92 -86 96 -86 21 0 -8 41 -77 110
l-80 80 -142 0 -143 0 0 -280z"/>
</g>
</svg>
